<svg width="18" height="18" viewBox="0 0 18 18" fill="none" xmlns="http://www.w3.org/2000/svg">
<path d="M12.1818 4.90909H11.7273V4.45455C11.7273 4.20455 11.5227 4 11.2727 4C11.0227 4 10.8182 4.20455 10.8182 4.45455V4.90909H6.27273V4.45455C6.27273 4.20455 6.06818 4 5.81818 4C5.56818 4 5.36364 4.20455 5.36364 4.45455V4.90909H4.90909C4.40909 4.90909 4 5.31818 4 5.81818V13.0909C4 13.5909 4.40909 14 4.90909 14H12.1818C12.6818 14 13.0909 13.5909 13.0909 13.0909V5.81818C13.0909 5.31818 12.6818 4.90909 12.1818 4.90909ZM11.7273 13.0909H5.36364C5.11364 13.0909 4.90909 12.8864 4.90909 12.6364V7.18182H12.1818V12.6364C12.1818 12.8864 11.9773 13.0909 11.7273 13.0909Z" fill="#B4B4B4"/>
</svg>
