<svg width="18" height="18" viewBox="0 0 18 18" fill="none" xmlns="http://www.w3.org/2000/svg">
<path d="M8.995 4C6.235 4 4 6.24 4 9C4 11.76 6.235 14 8.995 14C11.76 14 14 11.76 14 9C14 6.24 11.76 4 8.995 4ZM9 13C6.79 13 5 11.21 5 9C5 6.79 6.79 5 9 5C11.21 5 13 6.79 13 9C13 11.21 11.21 13 9 13ZM8.89 6.5H8.86C8.66 6.5 8.5 6.66 8.5 6.86V9.22C8.5 9.395 8.59 9.56 8.745 9.65L10.82 10.895C10.99 10.995 11.21 10.945 11.31 10.775C11.415 10.605 11.36 10.38 11.185 10.28L9.25 9.13V6.86C9.25 6.66 9.09 6.5 8.89 6.5V6.5Z" fill="#B4B4B4"/>
</svg>
