<svg width="257" height="256" viewBox="0 0 257 256" fill="none" xmlns="http://www.w3.org/2000/svg">
<path fill-rule="evenodd" clip-rule="evenodd" d="M94.24 42.496C94.24 32.0335 102.722 23.552 113.184 23.552H140.832C151.295 23.552 159.776 32.0335 159.776 42.496C159.776 48.4342 164.59 53.248 170.528 53.248H177.184C187.929 53.248 196.64 61.9588 196.64 72.704V214.016C196.64 224.761 187.929 233.472 177.184 233.472H77.856C67.1108 233.472 58.4 224.761 58.4 214.016V72.704C58.4 61.9588 67.1108 53.248 77.856 53.248H83.488C89.4262 53.248 94.24 48.4342 94.24 42.496ZM86.1793 143.023C84.0448 146.433 86.4962 150.86 90.5192 150.86H115.87V195.163C115.87 200.305 122.602 202.238 125.33 197.879L168.861 128.337C170.995 124.927 168.544 120.5 164.521 120.5H139.17V76.1973C139.17 71.0552 132.438 69.1221 129.71 73.4808L86.1793 143.023Z" fill="#5F71AE"/>
<path d="M86.1793 143.023L89.5698 145.146H89.5698L86.1793 143.023ZM115.87 150.86H119.87C119.87 148.651 118.079 146.86 115.87 146.86V150.86ZM125.33 197.879L121.94 195.757H121.94L125.33 197.879ZM168.861 128.337L172.251 130.459L168.861 128.337ZM139.17 120.5H135.17C135.17 122.709 136.961 124.5 139.17 124.5V120.5ZM129.71 73.4808L126.319 71.3585H126.319L129.71 73.4808ZM113.184 19.552C100.512 19.552 90.24 29.8244 90.24 42.496H98.24C98.24 34.2427 104.931 27.552 113.184 27.552V19.552ZM140.832 19.552H113.184V27.552H140.832V19.552ZM163.776 42.496C163.776 29.8244 153.504 19.552 140.832 19.552V27.552C149.085 27.552 155.776 34.2427 155.776 42.496H163.776ZM170.528 49.248C166.799 49.248 163.776 46.225 163.776 42.496H155.776C155.776 50.6433 162.381 57.248 170.528 57.248V49.248ZM177.184 49.248H170.528V57.248H177.184V49.248ZM200.64 72.704C200.64 59.7496 190.138 49.248 177.184 49.248V57.248C185.72 57.248 192.64 64.1679 192.64 72.704H200.64ZM200.64 214.016V72.704H192.64V214.016H200.64ZM177.184 237.472C190.138 237.472 200.64 226.97 200.64 214.016H192.64C192.64 222.552 185.72 229.472 177.184 229.472V237.472ZM77.856 237.472H177.184V229.472H77.856V237.472ZM54.4 214.016C54.4 226.97 64.9016 237.472 77.856 237.472V229.472C69.3199 229.472 62.4 222.552 62.4 214.016H54.4ZM54.4 72.704V214.016H62.4V72.704H54.4ZM77.856 49.248C64.9016 49.248 54.4 59.7496 54.4 72.704H62.4C62.4 64.1679 69.3199 57.248 77.856 57.248V49.248ZM83.488 49.248H77.856V57.248H83.488V49.248ZM90.24 42.496C90.24 46.225 87.2171 49.248 83.488 49.248V57.248C91.6353 57.248 98.24 50.6433 98.24 42.496H90.24ZM90.5192 146.86C89.6392 146.86 89.1029 145.892 89.5698 145.146L82.7888 140.901C78.9866 146.975 83.3532 154.86 90.5192 154.86V146.86ZM115.87 146.86H90.5192V154.86H115.87V146.86ZM119.87 195.163V150.86H111.87V195.163H119.87ZM121.94 195.757C121.743 196.071 121.546 196.184 121.392 196.237C121.205 196.302 120.953 196.317 120.681 196.239C120.409 196.161 120.204 196.014 120.08 195.86C119.978 195.733 119.87 195.534 119.87 195.163H111.87C111.87 204.322 123.861 207.765 128.721 200.002L121.94 195.757ZM165.47 126.214L121.94 195.757L128.721 200.002L172.251 130.459L165.47 126.214ZM164.521 124.5C165.401 124.5 165.937 125.468 165.47 126.214L172.251 130.459C176.053 124.385 171.687 116.5 164.521 116.5V124.5ZM139.17 124.5H164.521V116.5H139.17V124.5ZM135.17 76.1973V120.5H143.17V76.1973H135.17ZM133.1 75.6031C133.297 75.2887 133.494 75.1763 133.648 75.1231C133.835 75.0584 134.087 75.0428 134.359 75.1209C134.631 75.1989 134.836 75.346 134.96 75.5001C135.062 75.6266 135.17 75.8265 135.17 76.1973H143.17C143.17 67.0378 131.179 63.5946 126.319 71.3585L133.1 75.6031ZM89.5698 145.146L133.1 75.6031L126.319 71.3585L82.7888 140.901L89.5698 145.146Z" fill="#5F71AE"/>
</svg>
