<svg width="463" height="463" viewBox="0 0 463 463" fill="none" xmlns="http://www.w3.org/2000/svg">
<path fill-rule="evenodd" clip-rule="evenodd" d="M15 126C15 95.6243 39.6243 71 70 71H330C360.376 71 385 95.6243 385 126V337C385 367.376 360.376 392 330 392H70C39.6243 392 15 367.376 15 337V126ZM70 121C67.2386 121 65 123.239 65 126V337C65 339.761 67.2386 342 70 342H330C332.761 342 335 339.761 335 337V126C335 123.239 332.761 121 330 121H70Z" fill="#959299"/>
<path d="M423 266L423 197" stroke="#959299" stroke-width="50" stroke-linecap="round"/>
<path fill-rule="evenodd" clip-rule="evenodd" d="M70 96C53.4315 96 40 109.431 40 126V337C40 353.569 53.4315 367 70 367H330C346.569 367 360 353.569 360 337V126C360 109.431 346.569 96 330 96H70ZM200.5 188.965L171.345 159.809C159.599 148.064 140.555 148.063 128.809 159.809C117.064 171.555 117.064 190.599 128.809 202.344L157.965 231.5L128.809 260.655C117.064 272.401 117.064 291.445 128.809 303.191C140.555 314.936 159.599 314.936 171.345 303.191L200.5 274.035L229.655 303.191C241.401 314.936 260.445 314.936 272.191 303.191C283.936 291.445 283.936 272.401 272.191 260.655L243.035 231.5L272.191 202.344C283.936 190.599 283.936 171.555 272.191 159.809C260.445 148.063 241.401 148.064 229.655 159.809L200.5 188.965Z" fill="#959299"/>
</svg>
