<svg width="257" height="256" viewBox="0 0 257 256" fill="none" xmlns="http://www.w3.org/2000/svg">
<path fill-rule="evenodd" clip-rule="evenodd" d="M113.216 23.552C102.754 23.552 94.272 32.0335 94.272 42.496C94.272 48.4342 89.4582 53.248 83.52 53.248H77.888C67.1428 53.248 58.432 61.9588 58.432 72.704V214.016C58.432 224.761 67.1428 233.472 77.888 233.472H177.216C187.961 233.472 196.672 224.761 196.672 214.016V72.704C196.672 61.9588 187.961 53.248 177.216 53.248H170.56C164.622 53.248 159.808 48.4342 159.808 42.496C159.808 32.0335 151.326 23.552 140.864 23.552H113.216ZM102.464 42.496C102.464 36.5578 107.278 31.744 113.216 31.744H140.864C146.802 31.744 151.616 36.5578 151.616 42.496C151.616 52.9585 160.098 61.44 170.56 61.44H177.216C183.437 61.44 188.48 66.4831 188.48 72.704V100.149C185.675 97.1247 181.666 95.232 177.216 95.232H77.888C73.4376 95.232 69.4292 97.1247 66.624 100.149V72.704C66.624 66.4831 71.6671 61.44 77.888 61.44H83.52C93.9825 61.44 102.464 52.9585 102.464 42.496Z" fill="#5F71AE" stroke="#5F71AE" stroke-width="8" stroke-linejoin="round"/>
</svg>
