<svg width="257" height="256" viewBox="0 0 257 256" fill="none" xmlns="http://www.w3.org/2000/svg">
<path fill-rule="evenodd" clip-rule="evenodd" d="M113.872 23.552C103.41 23.552 94.928 32.0335 94.928 42.496C94.928 48.4342 90.1142 53.248 84.176 53.248H78.544C67.7988 53.248 59.088 61.9588 59.088 72.704V214.016C59.088 224.761 67.7988 233.472 78.544 233.472H177.872C188.617 233.472 197.328 224.761 197.328 214.016V72.704C197.328 61.9588 188.617 53.248 177.872 53.248H171.216C165.278 53.248 160.464 48.4342 160.464 42.496C160.464 32.0335 151.982 23.552 141.52 23.552H113.872ZM103.12 42.496C103.12 36.5578 107.934 31.744 113.872 31.744H141.52C147.458 31.744 152.272 36.5578 152.272 42.496C152.272 52.9585 160.754 61.44 171.216 61.44H177.872C184.093 61.44 189.136 66.4831 189.136 72.704V166.709C186.331 163.685 182.322 161.792 177.872 161.792H78.544C74.0936 161.792 70.0853 163.685 67.28 166.709V72.704C67.28 66.4831 72.3231 61.44 78.544 61.44H84.176C94.6385 61.44 103.12 52.9585 103.12 42.496Z" fill="#5F71AE" stroke="#5F71AE" stroke-width="8" stroke-linejoin="round"/>
</svg>
