<svg width="257" height="256" viewBox="0 0 257 256" fill="none" xmlns="http://www.w3.org/2000/svg">
<path fill-rule="evenodd" clip-rule="evenodd" d="M94.584 42.496C94.584 32.0335 103.066 23.552 113.528 23.552H141.176C151.638 23.552 160.12 32.0335 160.12 42.496C160.12 48.4342 164.934 53.248 170.872 53.248H177.528C188.273 53.248 196.984 61.9588 196.984 72.704V214.016C196.984 224.761 188.273 233.472 177.528 233.472H78.2C67.4548 233.472 58.744 224.761 58.744 214.016V72.704C58.744 61.9588 67.4548 53.248 78.2 53.248H83.832C89.7702 53.248 94.584 48.4342 94.584 42.496ZM113.528 31.744C107.59 31.744 102.776 36.5578 102.776 42.496C102.776 52.9585 94.2945 61.44 83.832 61.44H78.2C71.9791 61.44 66.936 66.4831 66.936 72.704V214.016C66.936 220.237 71.9791 225.28 78.2 225.28H177.528C183.749 225.28 188.792 220.237 188.792 214.016V72.704C188.792 66.4831 183.749 61.44 177.528 61.44H170.872C160.41 61.44 151.928 52.9585 151.928 42.496C151.928 36.5578 147.114 31.744 141.176 31.744H113.528Z" fill="#5F71AE" stroke="#5F71AE" stroke-width="8" stroke-linejoin="round"/>
</svg>
