<svg width="463" height="463" viewBox="0 0 463 463" fill="none" xmlns="http://www.w3.org/2000/svg">
<path fill-rule="evenodd" clip-rule="evenodd" d="M15 126C15 95.6243 39.6243 71 70 71H330C360.376 71 385 95.6243 385 126V337C385 367.376 360.376 392 330 392H70C39.6243 392 15 367.376 15 337V126ZM70 121C67.2386 121 65 123.239 65 126V337C65 339.761 67.2386 342 70 342H330C332.761 342 335 339.761 335 337V126C335 123.239 332.761 121 330 121H70Z" fill="#959299"/>
<path d="M423 266L423 197" stroke="#959299" stroke-width="50" stroke-linecap="round"/>
<path fill-rule="evenodd" clip-rule="evenodd" d="M70 96C53.4315 96 40 109.431 40 126V337C40 353.569 53.4315 367 70 367H330C346.569 367 360 353.569 360 337V126C360 109.431 346.569 96 330 96H70ZM235.649 165.298C243.787 151.175 238.958 133.115 224.863 124.961C210.769 116.807 192.747 121.646 184.61 135.769L133.655 224.209C127.872 231.313 125.463 241.006 128.011 250.538C129.87 257.49 134.056 263.195 139.505 267.036C140.317 267.624 141.167 268.177 142.054 268.689C150.403 273.52 160.13 273.791 168.365 270.273L182.435 266.495L164.455 297.702C156.318 311.825 161.147 329.885 175.241 338.039C189.335 346.193 207.357 341.354 215.495 327.231L268.837 234.648C268.856 234.614 268.875 234.581 268.894 234.547C268.912 234.516 268.93 234.484 268.948 234.452C272.794 227.877 274.113 219.822 271.989 211.879C267.776 196.126 251.618 186.778 235.898 190.999L218.086 195.782L235.649 165.298Z" fill="#959299"/>
</svg>
