<svg width="463" height="463" viewBox="0 0 463 463" fill="none" xmlns="http://www.w3.org/2000/svg">
<path d="M38 144.297C38 99.9502 73.9503 64 118.297 64V64C162.644 64 198.594 99.9503 198.594 144.297V244.189C198.594 288.535 162.644 324.486 118.297 324.486V324.486C73.9503 324.486 38 288.535 38 244.188V144.297Z" fill="#959299"/>
<path d="M156 400H82" stroke="#959299" stroke-width="50" stroke-linecap="round" stroke-linejoin="round"/>
<path d="M311.792 136.113L329.469 153.79L329.47 153.79L311.792 136.113ZM311.792 136.656L329.469 118.978L329.469 118.978L311.792 136.656ZM312.335 136.113L330.013 118.435L330.012 118.435L312.335 136.113ZM369.825 193.603L352.148 211.281L369.825 228.958L387.503 211.281L369.825 193.603ZM427.315 136.113L409.638 118.435L409.638 118.435L427.315 136.113ZM427.859 136.113L410.181 153.79L410.181 153.791L427.859 136.113ZM427.859 136.656L410.181 118.979L410.181 118.979L427.859 136.656ZM370.369 194.146L352.691 176.469L335.013 194.146L352.691 211.824L370.369 194.146ZM428.538 252.859L410.861 235.181L410.86 235.181L428.538 252.859ZM427.994 252.859L445.672 235.181L445.672 235.181L427.994 252.859ZM369.825 194.69L387.503 177.012L369.825 159.334L352.148 177.012L369.825 194.69ZM311.656 252.859L293.978 235.182L293.978 235.182L311.656 252.859ZM311.113 252.859L328.79 235.182L328.79 235.181L311.113 252.859ZM311.113 252.316L293.435 234.638L293.435 234.638L311.113 252.316ZM369.282 194.146L386.96 211.824L404.637 194.146L386.96 176.469L369.282 194.146ZM294.114 118.435C284.201 128.348 284.201 144.42 294.114 154.334L329.469 118.978C339.082 128.591 339.082 144.177 329.469 153.79L294.114 118.435ZM330.012 118.435C320.1 108.522 304.027 108.521 294.113 118.435L329.47 153.79C319.856 163.404 304.27 163.403 294.657 153.79L330.012 118.435ZM387.503 175.925L330.013 118.435L294.657 153.79L352.148 211.281L387.503 175.925ZM387.503 211.281L444.993 153.791L409.638 118.435L352.148 175.925L387.503 211.281ZM444.993 153.791C435.38 163.404 419.794 163.404 410.181 153.79L445.537 118.436C435.623 108.522 419.551 108.523 409.638 118.435L444.993 153.791ZM410.181 153.791C400.568 144.178 400.568 128.592 410.181 118.979L445.536 154.334C455.45 144.421 455.45 128.348 445.536 118.435L410.181 153.791ZM410.181 118.979L352.691 176.469L388.046 211.824L445.536 154.334L410.181 118.979ZM446.215 234.638L388.046 176.469L352.691 211.824L410.86 269.993L446.215 234.638ZM446.215 270.537C456.129 260.623 456.128 244.551 446.215 234.638L410.86 269.993C401.247 260.38 401.247 244.794 410.861 235.181L446.215 270.537ZM410.317 270.536C420.23 280.45 436.302 280.45 446.215 270.536L410.86 235.181C420.473 225.568 436.059 225.568 445.672 235.181L410.317 270.536ZM352.148 212.367L410.317 270.536L445.672 235.181L387.503 177.012L352.148 212.367ZM352.148 177.012L293.978 235.182L329.334 270.537L387.503 212.367L352.148 177.012ZM293.978 235.182C303.591 225.568 319.177 225.568 328.79 235.182L293.435 270.537C303.348 280.45 319.42 280.45 329.334 270.537L293.978 235.182ZM328.79 235.181C338.404 244.795 338.403 260.381 328.79 269.994L293.435 234.638C283.522 244.551 283.521 260.624 293.435 270.537L328.79 235.181ZM328.79 269.994L386.96 211.824L351.604 176.469L293.435 234.638L328.79 269.994ZM294.114 154.334L351.604 211.824L386.96 176.469L329.469 118.978L294.114 154.334Z" fill="#959299"/>
</svg>
