<svg width="256" height="256" viewBox="0 0 256 256" fill="none" xmlns="http://www.w3.org/2000/svg">
<path d="M45.7494 225.628C44.0286 224.16 43.8239 221.574 45.2922 219.853L206.06 31.4374C207.529 29.7166 210.114 29.5119 211.835 30.9802C213.556 32.4485 213.76 35.0339 212.292 36.7547L51.524 225.171C50.0556 226.892 47.4703 227.096 45.7494 225.628Z" fill="#5F71AE" stroke="#5F71AE" stroke-width="8" stroke-linejoin="round"/>
<path d="M45.7494 225.628C44.0286 224.16 43.8239 221.574 45.2922 219.853L206.06 31.4374C207.529 29.7166 210.114 29.5119 211.835 30.9802C213.556 32.4485 213.76 35.0339 212.292 36.7547L51.524 225.171C50.0556 226.892 47.4703 227.096 45.7494 225.628Z" fill="#5F71AE"/>
<path fill-rule="evenodd" clip-rule="evenodd" d="M128.312 11C146.573 11 162.862 19.4388 173.494 32.6292L161.508 46.6763C154.323 36.0134 142.137 29 128.312 29C106.221 29 88.312 46.9086 88.312 69V128C88.312 129.42 88.386 130.823 88.5303 132.204L74.2207 148.975C71.6966 142.47 70.312 135.397 70.312 128V69C70.312 36.9675 96.2795 11 128.312 11ZM168.312 128C168.312 148.849 152.361 165.972 131.998 167.832L117.375 184.97C120.917 185.646 124.573 186 128.312 186C160.345 186 186.312 160.033 186.312 128V104.178L168.312 125.273V128ZM111.228 192.174L98.3951 207.214C105.046 209.415 112.07 210.902 119.312 211.58V235C119.312 240.523 123.341 245 128.312 245C133.283 245 137.312 240.523 137.312 235V211.58C177.711 207.797 211.312 178.858 211.312 141C211.312 136.029 207.283 132 202.312 132C197.341 132 193.312 136.029 193.312 141C193.312 168.845 165.768 194 128.312 194C122.342 194 116.623 193.361 111.228 192.174ZM66.7093 157.778L53.9517 172.73C48.4465 163.293 45.312 152.563 45.312 141C45.312 136.029 49.3414 132 54.312 132C59.2826 132 63.312 136.029 63.312 141C63.312 146.775 64.4969 152.435 66.7093 157.778Z" fill="#5F71AE"/>
</svg>
