<svg width="257" height="256" viewBox="0 0 257 256" fill="none" xmlns="http://www.w3.org/2000/svg">
<rect x="80" y="20" width="98" height="157" rx="49" stroke="#5F71AE" stroke-width="18"/>
<path fill-rule="evenodd" clip-rule="evenodd" d="M64 141C64 136.029 59.9706 132 55 132C50.0294 132 46 136.029 46 141C46 178.858 79.6011 207.797 120 211.58V235C120 240.523 124.029 245 129 245C133.971 245 138 240.523 138 235V211.58C178.399 207.797 212 178.858 212 141C212 136.029 207.971 132 203 132C198.029 132 194 136.029 194 141C194 168.845 166.456 194 129 194C91.5442 194 64 168.845 64 141Z" fill="#5F71AE"/>
</svg>
