<svg width="256" height="256" viewBox="0 0 256 256" fill="none" xmlns="http://www.w3.org/2000/svg">
<rect x="79" y="20" width="98" height="157" rx="49" stroke="#5F71AE" stroke-width="18"/>
<rect x="88" y="76" width="81" height="94" rx="21" fill="#5F71AE"/>
<path fill-rule="evenodd" clip-rule="evenodd" d="M63.312 141C63.312 136.029 59.2826 132 54.312 132C49.3414 132 45.312 136.029 45.312 141C45.312 178.858 78.9131 207.797 119.312 211.58V235C119.312 240.523 123.341 245 128.312 245C133.283 245 137.312 240.523 137.312 235V211.58C177.711 207.797 211.312 178.858 211.312 141C211.312 136.029 207.283 132 202.312 132C197.341 132 193.312 136.029 193.312 141C193.312 168.845 165.768 194 128.312 194C90.8562 194 63.312 168.845 63.312 141Z" fill="#5F71AE"/>
</svg>
