<svg width="463" height="463" viewBox="0 0 463 463" fill="none" xmlns="http://www.w3.org/2000/svg">
<path d="M38 144.297C38 99.9502 73.9503 64 118.297 64V64C162.644 64 198.594 99.9503 198.594 144.297V244.189C198.594 288.535 162.644 324.486 118.297 324.486V324.486C73.9503 324.486 38 288.535 38 244.188V144.297Z" fill="#959299"/>
<path d="M156 400H82" stroke="#959299" stroke-width="50" stroke-linecap="round" stroke-linejoin="round"/>
<path d="M311 79C325.971 79 340.795 81.9616 354.626 87.7158C368.457 93.47 381.024 101.904 391.61 112.536C402.196 123.169 410.593 135.791 416.322 149.683C422.051 163.575 425 178.464 425 193.5C425 208.536 422.051 223.426 416.322 237.317C410.593 251.209 402.196 263.831 391.61 274.464C381.024 285.096 368.457 293.53 354.626 299.284C340.795 305.038 325.971 308 311 308" stroke="#959299" stroke-width="50" stroke-linecap="round"/>
<path d="M312.214 194H311" stroke="#959299" stroke-width="75" stroke-linecap="round" stroke-linejoin="round"/>
</svg>
