<svg width="257" height="256" viewBox="0 0 257 256" fill="none" xmlns="http://www.w3.org/2000/svg">
<path d="M159.493 24.5235C165.917 19.1327 175.094 18.5006 181.812 22.9478L176.403 29.2866C172.865 27.4642 168.267 27.8547 164.758 30.799L97.0089 87.6474H56.456C50.235 87.6474 45.192 92.6904 45.192 98.9114V158.303C45.192 164.524 50.235 169.567 56.456 169.567H56.7071L50.5075 176.833C42.6717 174.32 37 166.974 37 158.303V98.9114C37 88.1661 45.7107 79.4554 56.456 79.4554H94.0273L159.493 24.5235Z" fill="#5F71AE"/>
<path d="M210.369 76.0504L204.029 83.4807C208.045 97.8259 210.174 112.738 210.279 127.847C210.519 162.147 200.316 195.582 181.209 223.787C177.937 228.617 171.022 229.52 166.118 225.521L117.008 185.467L111.689 191.701L160.94 231.869C169.184 238.592 181.747 237.598 187.991 228.382C208.025 198.809 218.722 163.753 218.471 127.79C218.348 110.107 215.58 92.6798 210.369 76.0504Z" fill="#5F71AE"/>
<path d="M45.6054 225.864C43.8845 224.395 43.6798 221.81 45.1482 220.089L205.916 31.6732C207.385 29.9523 209.97 29.7476 211.691 31.216C213.412 32.6843 213.616 35.2697 212.148 36.9905L51.3799 225.407C49.9116 227.127 47.3262 227.332 45.6054 225.864Z" fill="#5F71AE"/>
<path d="M159.493 24.5235C165.917 19.1327 175.094 18.5006 181.812 22.9478L176.403 29.2866C172.865 27.4642 168.267 27.8547 164.758 30.799L97.0089 87.6474H56.456C50.235 87.6474 45.192 92.6904 45.192 98.9114V158.303C45.192 164.524 50.235 169.567 56.456 169.567H56.7071L50.5075 176.833C42.6717 174.32 37 166.974 37 158.303V98.9114C37 88.1661 45.7107 79.4554 56.456 79.4554H94.0273L159.493 24.5235Z" stroke="#5F71AE" stroke-width="8" stroke-linejoin="round"/>
<path d="M210.369 76.0504L204.029 83.4807C208.045 97.8259 210.174 112.738 210.279 127.847C210.519 162.147 200.316 195.582 181.209 223.787C177.937 228.617 171.022 229.52 166.118 225.521L117.008 185.467L111.689 191.701L160.94 231.869C169.184 238.592 181.747 237.598 187.991 228.382C208.025 198.809 218.722 163.753 218.471 127.79C218.348 110.107 215.58 92.6798 210.369 76.0504Z" stroke="#5F71AE" stroke-width="8" stroke-linejoin="round"/>
<path d="M45.6054 225.864C43.8845 224.395 43.6798 221.81 45.1482 220.089L205.916 31.6732C207.385 29.9523 209.97 29.7476 211.691 31.216C213.412 32.6843 213.616 35.2697 212.148 36.9905L51.3799 225.407C49.9116 227.127 47.3262 227.332 45.6054 225.864Z" stroke="#5F71AE" stroke-width="8" stroke-linejoin="round"/>
</svg>
