<svg width="463" height="463" viewBox="0 0 463 463" fill="none" xmlns="http://www.w3.org/2000/svg">
<path d="M88.4043 159.792C97.4068 159.792 105.999 156.026 112.099 149.405L144.088 114.685C163.97 93.1053 200 107.173 200 136.516V327.484C200 356.827 163.97 370.895 144.088 349.315L112.099 314.595C105.999 307.974 97.4068 304.208 88.4043 304.208H68.218C50.4245 304.208 36 289.783 36 271.989V192.011C36 174.217 50.4245 159.792 68.218 159.792H88.4043Z" fill="#959299" stroke="#959299" stroke-width="50"/>
<path d="M313.792 174.113L331.469 191.79L331.47 191.79L313.792 174.113ZM313.792 174.656L331.469 156.978L331.469 156.978L313.792 174.656ZM314.335 174.113L332.013 156.435L332.012 156.435L314.335 174.113ZM371.825 231.603L354.148 249.281L371.825 266.958L389.503 249.281L371.825 231.603ZM429.315 174.113L411.638 156.435L411.638 156.435L429.315 174.113ZM429.859 174.113L412.181 191.79L412.181 191.791L429.859 174.113ZM429.859 174.656L412.181 156.979L412.181 156.979L429.859 174.656ZM372.369 232.146L354.691 214.469L337.013 232.146L354.691 249.824L372.369 232.146ZM430.538 290.859L412.861 273.181L412.86 273.181L430.538 290.859ZM371.825 232.69L389.503 215.012L371.825 197.334L354.148 215.012L371.825 232.69ZM313.656 290.859L295.978 273.182L295.978 273.182L313.656 290.859ZM313.113 290.859L330.79 273.182L330.79 273.181L313.113 290.859ZM313.113 290.316L295.435 272.638L295.435 272.638L313.113 290.316ZM371.282 232.146L388.96 249.824L406.637 232.146L388.96 214.469L371.282 232.146ZM296.114 156.435C286.201 166.348 286.201 182.42 296.114 192.334L331.469 156.978C341.082 166.591 341.082 182.177 331.469 191.79L296.114 156.435ZM332.012 156.435C322.1 146.522 306.027 146.521 296.113 156.435L331.47 191.79C321.856 201.404 306.27 201.403 296.657 191.79L332.012 156.435ZM389.503 213.925L332.013 156.435L296.657 191.79L354.148 249.281L389.503 213.925ZM389.503 249.281L446.993 191.791L411.638 156.435L354.148 213.925L389.503 249.281ZM446.993 191.791C437.38 201.404 421.794 201.404 412.181 191.79L447.537 156.436C437.623 146.522 421.551 146.523 411.638 156.435L446.993 191.791ZM412.181 191.791C402.568 182.178 402.568 166.592 412.181 156.979L447.536 192.334C457.45 182.421 457.45 166.348 447.536 156.435L412.181 191.791ZM412.181 156.979L354.691 214.469L390.046 249.824L447.536 192.334L412.181 156.979ZM448.215 272.638L390.046 214.469L354.691 249.824L412.86 307.993L448.215 272.638ZM448.215 308.537C458.129 298.623 458.128 282.551 448.215 272.638L412.86 307.993C403.247 298.38 403.247 282.794 412.861 273.181L448.215 308.537ZM412.317 308.536C422.23 318.45 438.302 318.45 448.215 308.536L412.86 273.181C422.473 263.568 438.059 263.568 447.672 273.181L412.317 308.536ZM354.148 250.367L412.317 308.536L447.672 273.181L389.503 215.012L354.148 250.367ZM354.148 215.012L295.978 273.182L331.334 308.537L389.503 250.367L354.148 215.012ZM295.978 273.182C305.591 263.568 321.177 263.568 330.79 273.182L295.435 308.537C305.348 318.45 321.42 318.45 331.334 308.537L295.978 273.182ZM330.79 273.181C340.404 282.795 340.403 298.381 330.79 307.994L295.435 272.638C285.522 282.551 285.521 298.624 295.435 308.537L330.79 273.181ZM330.79 307.994L388.96 249.824L353.604 214.469L295.435 272.638L330.79 307.994ZM296.114 192.334L353.604 249.824L388.96 214.469L331.469 156.978L296.114 192.334Z" fill="#959299"/>
</svg>
