<svg width="257" height="256" viewBox="0 0 257 256" fill="none" xmlns="http://www.w3.org/2000/svg">
<path fill-rule="evenodd" clip-rule="evenodd" d="M186.798 27.0928C180.426 17.9641 167.85 17.1459 159.701 23.9836L94.2353 78.9155H56.664C45.9187 78.9155 37.208 87.6262 37.208 98.3715V157.763C37.208 168.509 45.9187 177.219 56.664 177.219H94.8034L161.148 231.329C169.392 238.052 181.955 237.059 188.199 227.842C208.233 198.27 218.93 163.213 218.679 127.25C218.428 91.2867 207.242 56.3826 186.798 27.0928ZM164.966 30.259C169.814 26.1911 176.741 26.9981 180.08 31.7816C199.579 59.7169 210.248 93.007 210.487 127.307C210.727 161.607 200.524 195.042 181.417 223.247C178.145 228.077 171.23 228.981 166.326 224.981L140.101 203.592C151.464 179.974 157.394 153.916 157.208 127.352C157.024 100.963 150.813 75.1574 139.269 51.8219L164.966 30.259Z" fill="#5F71AE" stroke="#5F71AE" stroke-width="8" stroke-linejoin="round"/>
</svg>
