<svg width="256" height="256" viewBox="0 0 256 256" fill="none" xmlns="http://www.w3.org/2000/svg">
<path fill-rule="evenodd" clip-rule="evenodd" d="M186.454 27.0928C180.082 17.9641 167.506 17.1459 159.357 23.9836L93.8913 78.9155H56.32C45.5747 78.9155 36.864 87.6262 36.864 98.3715V157.763C36.864 168.509 45.5747 177.219 56.32 177.219H94.4594L160.804 231.329C169.048 238.052 181.611 237.059 187.855 227.842C207.889 198.27 218.586 163.213 218.335 127.25C218.084 91.2867 206.898 56.3826 186.454 27.0928ZM164.622 30.259C169.47 26.1911 176.397 26.9981 179.736 31.7816C199.235 59.7169 209.904 93.007 210.143 127.307C210.383 161.607 200.18 195.042 181.073 223.247C177.801 228.077 170.886 228.981 165.982 224.981L97.3764 169.027H93.6688C96.9516 155.429 98.5954 141.392 98.4964 127.211C98.4014 113.602 96.7034 100.148 93.4976 87.1075H96.873L164.622 30.259Z" fill="#5F71AE" stroke="#5F71AE" stroke-width="8" stroke-linejoin="round"/>
</svg>
