<svg width="463" height="463" viewBox="0 0 463 463" fill="none" xmlns="http://www.w3.org/2000/svg">
<path d="M88.4043 159.792C97.4068 159.792 105.999 156.026 112.099 149.405L144.088 114.685C163.97 93.1053 200 107.173 200 136.516V327.484C200 356.827 163.97 370.895 144.088 349.315L112.099 314.595C105.999 307.974 97.4068 304.208 88.4043 304.208H68.218C50.4245 304.208 36 289.783 36 271.989V192.011C36 174.217 50.4245 159.792 68.218 159.792H88.4043Z" fill="#959299" stroke="#959299" stroke-width="50"/>
<path d="M313 117C327.971 117 342.795 119.962 356.626 125.716C370.457 131.47 383.024 139.904 393.61 150.536C404.196 161.169 412.593 173.791 418.322 187.683C424.051 201.575 427 216.464 427 231.5C427 246.536 424.051 261.426 418.322 275.317C412.593 289.209 404.196 301.831 393.61 312.464C383.024 323.096 370.457 331.53 356.626 337.284C342.795 343.038 327.971 346 313 346" stroke="#959299" stroke-width="50" stroke-linecap="round"/>
<path d="M314.214 232H313" stroke="#959299" stroke-width="75" stroke-linecap="round" stroke-linejoin="round"/>
</svg>
