<svg width="257" height="256" viewBox="0 0 257 256" fill="none" xmlns="http://www.w3.org/2000/svg">
<path fill-rule="evenodd" clip-rule="evenodd" d="M180.392 31.7816C177.053 26.9981 170.126 26.1911 165.278 30.259L97.529 87.1075H56.976C50.7551 87.1075 45.712 92.1505 45.712 98.3715V157.763C45.712 163.984 50.7551 169.027 56.976 169.027H98.0324L166.638 224.981C171.542 228.981 178.457 228.077 181.729 223.247C200.836 195.042 211.039 161.607 210.799 127.307C210.56 93.007 199.891 59.7169 180.392 31.7816ZM160.013 23.9836C168.162 17.1459 180.738 17.9641 187.11 27.0928C207.554 56.3826 218.74 91.2867 218.991 127.25C219.242 163.213 208.545 198.27 188.511 227.842C182.267 237.059 169.704 238.052 161.46 231.329L95.1154 177.219H56.976C46.2307 177.219 37.52 168.509 37.52 157.763V98.3715C37.52 87.6262 46.2307 78.9155 56.976 78.9155H94.5473L160.013 23.9836Z" fill="#5F71AE"/>
<path d="M165.278 30.259C170.126 26.1911 177.053 26.9981 180.392 31.7816M165.278 30.259L162.646 27.1213M165.278 30.259L97.529 87.1075H56.976C50.7551 87.1075 45.712 92.1505 45.712 98.3715V157.763C45.712 163.984 50.7551 169.027 56.976 169.027H98.0324L166.638 224.981M180.392 31.7816C199.891 59.7169 210.56 93.007 210.799 127.307C211.039 161.607 200.836 195.042 181.729 223.247C178.457 228.077 171.542 228.981 166.638 224.981M180.392 31.7816L183.737 29.4472M166.638 224.981L164.049 228.155M187.11 27.0928C180.738 17.9641 168.162 17.1459 160.013 23.9836L94.5473 78.9155H56.976C46.2307 78.9155 37.52 87.6262 37.52 98.3715V157.763C37.52 168.509 46.2307 177.219 56.976 177.219H95.1154L161.46 231.329C169.704 238.052 182.267 237.059 188.511 227.842C208.545 198.269 219.242 163.213 218.991 127.25C218.74 91.2867 207.554 56.3826 187.11 27.0928ZM187.11 27.0928L183.751 29.4372" stroke="#5F71AE" stroke-width="8" stroke-linejoin="round"/>
</svg>
