<svg width="257" height="256" viewBox="0 0 257 256" fill="none" xmlns="http://www.w3.org/2000/svg">
<path fill-rule="evenodd" clip-rule="evenodd" d="M228.462 72.4683C198.889 52.4348 163.833 41.7373 127.87 41.9883C91.9067 42.2394 57.0026 53.4253 27.7128 73.8698C18.5841 80.2417 17.7659 92.8178 24.6036 100.967L114.034 207.546C121.881 216.897 136.3 216.796 144.015 207.336L231.949 99.5192C238.672 91.2756 237.679 78.7121 228.462 72.4683ZM127.927 50.1801C162.227 49.9407 195.662 60.1434 223.867 79.2505C228.697 82.5224 229.601 89.4373 225.601 94.3416L203.9 120.95C180.056 109.316 153.69 103.241 126.805 103.428C100.721 103.61 75.2059 109.681 52.0831 120.971L30.879 95.701C26.8111 90.853 27.6181 83.9262 32.4016 80.5872C60.3368 61.0882 93.6271 50.4196 127.927 50.1801Z" fill="#5F71AE" stroke="#5F71AE" stroke-width="8" stroke-linejoin="round"/>
</svg>
