<svg width="257" height="256" viewBox="0 0 257 256" fill="none" xmlns="http://www.w3.org/2000/svg">
<path fill-rule="evenodd" clip-rule="evenodd" d="M228.118 72.4683C198.545 52.4348 163.489 41.7373 127.526 41.9883C91.5627 42.2394 56.6586 53.4253 27.3688 73.8698C18.2401 80.2417 17.4219 92.8178 24.2596 100.967L113.69 207.546C121.537 216.897 135.956 216.796 143.671 207.336L231.605 99.5192C238.328 91.2756 237.335 78.7121 228.118 72.4683ZM127.583 50.1801C161.883 49.9407 195.318 60.1434 223.523 79.2505C228.353 82.5224 229.257 89.4373 225.257 94.3416L167.499 165.159C154.486 162.17 141.086 160.678 127.554 160.772C114.488 160.863 101.566 162.432 89.0146 165.394L30.535 95.701C26.4671 90.853 27.2741 83.9262 32.0576 80.5872C59.9928 61.0882 93.2831 50.4196 127.583 50.1801Z" fill="#5F71AE" stroke="#5F71AE" stroke-width="8" stroke-linejoin="round"/>
</svg>
