<svg width="463" height="463" viewBox="0 0 463 463" fill="none" xmlns="http://www.w3.org/2000/svg">
<path fill-rule="evenodd" clip-rule="evenodd" d="M363.017 211.278L255.935 342.823C244.038 357.438 221.77 357.593 209.67 343.146L100.39 212.664C140.285 191.019 185.12 179.328 231.054 179.007C277.309 178.683 322.611 189.904 363.017 211.278Z" fill="#959299"/>
<path fill-rule="evenodd" clip-rule="evenodd" d="M371.189 158.069C329.723 131.044 281.082 116.657 231.229 117.006C181.375 117.355 132.939 132.421 91.853 160.023C91.5931 160.198 91.5221 160.314 91.4885 160.372C91.4362 160.462 91.3384 160.673 91.2993 161.048C91.216 161.847 91.4437 163.045 92.3924 164.178L228.836 327.094C230.853 329.502 234.564 329.476 236.547 327.04L370.708 162.231C371.641 161.085 371.851 159.883 371.757 159.085C371.713 158.711 371.612 158.501 371.558 158.412C371.524 158.355 371.451 158.24 371.189 158.069ZM230.879 67.0074C290.59 66.5898 348.84 83.822 398.489 116.18C426.315 134.314 428.12 170.903 409.484 193.796L275.323 358.606C253.512 385.4 212.687 385.685 190.504 359.198L54.0602 196.282C35.1071 173.652 36.4007 137.042 63.9701 118.52C113.164 85.4706 171.167 67.4251 230.879 67.0074Z" fill="#959299"/>
</svg>
