<svg width="257" height="256" viewBox="0 0 257 256" fill="none" xmlns="http://www.w3.org/2000/svg">
<path fill-rule="evenodd" clip-rule="evenodd" d="M224.179 79.2505C195.974 60.1434 162.539 49.9407 128.239 50.1801C93.9391 50.4196 60.6489 61.0882 32.7136 80.5872C27.9301 83.9262 27.1231 90.853 31.191 95.701L120.621 202.28C125.164 207.694 133.512 207.636 137.979 202.159L225.913 94.3416C229.913 89.4373 229.009 82.5224 224.179 79.2505ZM128.182 41.9883C164.145 41.7373 199.201 52.4348 228.774 72.4683C237.991 78.7121 238.984 91.2756 232.261 99.5192L144.327 207.336C136.612 216.796 122.193 216.897 114.346 207.546L24.9156 100.967C18.0779 92.8178 18.8961 80.2417 28.0248 73.8698C57.3146 53.4253 92.2187 42.2394 128.182 41.9883Z" fill="#5F71AE" stroke="#5F71AE" stroke-width="8" stroke-linejoin="round"/>
</svg>
