<svg width="257" height="256" viewBox="0 0 257 256" fill="none" xmlns="http://www.w3.org/2000/svg">
<path d="M69.4057 219.605C67.6842 218.138 67.4783 215.552 68.9458 213.831L228.69 26.4389C230.157 24.7173 232.743 24.5114 234.464 25.979C236.186 27.4465 236.392 30.0318 234.924 31.7533L75.18 219.145C73.7125 220.867 71.1272 221.073 69.4057 219.605Z" fill="#5F71AE"/>
<path d="M143.983 207.346C136.692 216.285 123.415 216.867 115.354 209.013L120.689 202.754C125.309 207.695 133.3 207.483 137.635 202.168L225.568 94.3509C229.191 89.909 228.792 83.8178 225.096 80.2778L230.419 74.0332C237.754 80.6371 238.121 91.9219 231.917 99.5285L143.983 207.346Z" fill="#5F71AE"/>
<path d="M127.837 41.9976C144.932 41.8783 161.822 44.2328 178.016 48.888L172.15 55.7686C157.81 51.9874 142.935 50.0844 127.895 50.1895C93.5948 50.4289 60.3046 61.0975 32.3694 80.5965C27.5858 83.9355 26.7789 90.8623 30.8468 95.7103L84.0507 159.116L78.6616 165.438L24.5714 100.976C17.7337 92.8272 18.5519 80.251 27.6806 73.8791C56.9703 53.4346 91.8745 42.2487 127.837 41.9976Z" fill="#5F71AE"/>
<path d="M69.4057 219.605C67.6842 218.138 67.4783 215.552 68.9458 213.831L228.69 26.4389C230.157 24.7173 232.743 24.5114 234.464 25.979C236.186 27.4465 236.392 30.0318 234.924 31.7533L75.18 219.145C73.7125 220.867 71.1272 221.073 69.4057 219.605Z" stroke="#5F71AE" stroke-width="8" stroke-linejoin="round"/>
<path d="M143.983 207.346C136.692 216.285 123.415 216.867 115.354 209.013L120.689 202.754C125.309 207.695 133.3 207.483 137.635 202.168L225.568 94.3509C229.191 89.909 228.792 83.8178 225.096 80.2778L230.419 74.0332C237.754 80.6371 238.121 91.9219 231.917 99.5285L143.983 207.346Z" stroke="#5F71AE" stroke-width="8" stroke-linejoin="round"/>
<path d="M127.837 41.9976C144.932 41.8783 161.822 44.2328 178.016 48.888L172.15 55.7686C157.81 51.9874 142.935 50.0844 127.895 50.1895C93.5948 50.4289 60.3046 61.0975 32.3694 80.5965C27.5858 83.9355 26.7789 90.8623 30.8468 95.7103L84.0507 159.116L78.6616 165.438L24.5714 100.976C17.7337 92.8272 18.5519 80.251 27.6806 73.8791C56.9703 53.4346 91.8745 42.2487 127.837 41.9976Z" stroke="#5F71AE" stroke-width="8" stroke-linejoin="round"/>
</svg>
