<svg width="463" height="463" viewBox="0 0 463 463" fill="none" xmlns="http://www.w3.org/2000/svg">
<path fill-rule="evenodd" clip-rule="evenodd" d="M371.189 158.069C329.723 131.044 281.082 116.657 231.229 117.006C181.375 117.355 132.939 132.421 91.853 160.023C91.5931 160.198 91.5221 160.314 91.4885 160.372C91.4362 160.462 91.3384 160.673 91.2993 161.048C91.216 161.847 91.4437 163.045 92.3924 164.178L228.836 327.094C230.853 329.502 234.564 329.476 236.547 327.04L370.708 162.231C371.641 161.085 371.851 159.883 371.757 159.085C371.713 158.711 371.612 158.501 371.558 158.412C371.524 158.355 371.451 158.24 371.189 158.069ZM230.879 67.0074C290.59 66.5898 348.84 83.822 398.489 116.18C426.315 134.314 428.12 170.903 409.484 193.796L275.323 358.606C253.512 385.4 212.687 385.685 190.504 359.198L54.0602 196.282C35.1071 173.652 36.4007 137.042 63.9701 118.52C113.164 85.4706 171.167 67.4251 230.879 67.0074Z" fill="#959299"/>
<path fill-rule="evenodd" clip-rule="evenodd" d="M77.628 139.272C63.8931 148.499 62.3187 167.545 72.9428 180.23L209.386 343.146C221.486 357.593 243.754 357.438 255.652 342.823L389.812 178.013C400.259 165.181 398.418 146.159 384.556 137.124C338.998 107.433 285.553 91.6236 230.77 92.0068C175.988 92.39 122.768 108.946 77.628 139.272ZM231.5 156.834L207.053 132.387C197.204 122.538 181.235 122.538 171.387 132.387C161.538 142.236 161.538 158.204 171.387 168.053L195.834 192.5L171.387 216.947C161.538 226.796 161.538 242.764 171.387 252.613C181.236 262.462 197.204 262.462 207.053 252.613L231.5 228.166L255.947 252.613C265.796 262.462 281.764 262.462 291.613 252.613C301.462 242.764 301.462 226.796 291.613 216.947L267.166 192.5L291.613 168.053C301.462 158.204 301.462 142.236 291.613 132.387C281.765 122.538 265.796 122.538 255.947 132.387L231.5 156.834Z" fill="#959299"/>
</svg>
