<svg width="256" height="256" viewBox="0 0 256 256" fill="none" xmlns="http://www.w3.org/2000/svg">
<g clip-path="url(#clip0_1_4)">
<path fill-rule="evenodd" clip-rule="evenodd" d="M127.976 -0.0240021C116.576 27.916 109.704 46.192 97.016 73.304C104.796 81.552 114.344 91.152 129.816 102C113.144 95.14 101.816 88.252 93.272 81.104C77.032 114.984 51.592 163.256 -0.0360107 256.024C40.58 232.6 72 218.16 101.352 212.64C100.092 207.224 99.376 201.368 99.432 195.26L99.48 193.96C100.12 167.96 113.648 147.968 129.668 149.328C145.688 150.688 158.14 172.872 157.496 198.872C157.398 203.568 156.851 208.244 155.86 212.836C184.86 218.508 215.98 232.916 256.008 256.024L234.328 215.92C223.728 207.708 212.676 197.016 190.128 185.44C205.628 189.468 216.728 194.112 225.328 199.308C156.928 71.948 151.384 55.028 127.928 -0.0240021H127.976Z" fill="white"/>
</g>
<defs>
<clipPath id="clip0_1_4">
<rect width="256" height="256" fill="white"/>
</clipPath>
</defs>
</svg>
